<svg aria-hidden="true" style="position: absolute; width: 0; height: 0; overflow: hidden;" version="1.1" xmlns="http://www.w3.org/2000/svg" xmlns:xlink="http://www.w3.org/1999/xlink">
<defs>
<symbol id="icon-yellow-big" viewBox="0 0 32 32">
<path fill="#fad34f" style="fill: var(--color1, #fad34f)" d="M32.052 15.983c0 8.837-7.163 16-16 16s-16-7.163-16-16 7.163-16 16-16 16 7.163 16 16z"></path>
<path fill="#fff" style="fill: var(--color2, #fff)" d="M20.363 20.954c0 1.145-0.929 0-2.076 0-1.145 0-2.076 1.145-2.076 0s0.929-2.076 2.076-2.076h0c0 0 0 0 0 0 1.146 0 2.075 0.929 2.075 2.075 0 0 0 0 0 0.001v-0zM26.898 20.954c0 1.145-0.929 0-2.076 0-1.146 0-2.076 1.145-2.076 0s0.929-2.076 2.076-2.076h0c0 0 0 0 0 0 1.146 0 2.075 0.929 2.075 2.075 0 0 0 0 0 0.001v-0zM24.818 25.352c0 2.108-1.709 3.815-3.816 3.815s-3.815-1.709-3.815-3.815c0-2.107 1.709 0.147 3.815 0.147s3.816-2.254 3.816-0.147z"></path>
</symbol>
<symbol id="icon-bookmark" viewBox="0 0 26 32">
<path fill="#46ebb0" style="fill: var(--color3, #46ebb0)" d="M25.887 19.057c0 7.148-5.795 12.943-12.943 12.943s-12.943-5.795-12.943-12.943v-19.057h25.885v19.057z"></path>
<path fill="#fff" style="fill: var(--color2, #fff)" d="M12.542 22.779c0-0.927 0.752 0 1.679 0s1.679-0.927 1.679 0c0 0.927-0.752 1.679-1.679 1.679s-1.679-0.752-1.679-1.679v0zM7.255 22.779c0-0.927 0.752 0 1.679 0s1.679-0.927 1.679 0c0 0.927-0.752 1.679-1.679 1.679s-1.679-0.752-1.679-1.679v0zM8.938 19.222c0.018-1.691 1.393-3.055 3.086-3.055s3.068 1.364 3.086 3.053v0.002c0 1.704-1.382-0.119-3.086-0.119s-3.086 1.823-3.086 0.119z"></path>
</symbol>
<symbol id="icon-yellow-small" viewBox="0 0 32 32">
<path fill="#fad34f" style="fill: var(--color1, #fad34f)" d="M25.645 9.241c3.612 5.121 2.268 12.285-3.001 16.001s-12.468 2.577-16.080-2.545c-3.612-5.121-2.268-12.285 3.001-16.001s12.469-2.576 16.080 2.545z"></path>
<path fill="#fff" style="fill: var(--color2, #fff)" d="M15.113 10.783c0.244 0.346-0.14 0.378-0.496 0.629s-0.549 0.627-0.794 0.28c-0.245-0.347-0.153-0.83 0.203-1.081s0.843-0.175 1.087 0.172zM17.578 9.044c0.244 0.346-0.14 0.378-0.496 0.629s-0.549 0.627-0.794 0.28-0.153-0.831 0.203-1.082c0.356-0.252 0.843-0.174 1.087 0.172zM18.1 11.086c0.477 0.677 0.3 1.623-0.397 2.113s-1.646 0.34-2.123-0.336c-0.477-0.677 0.597-0.351 1.293-0.842s0.75-1.612 1.227-0.936z"></path>
</symbol>
<symbol id="icon-pink-small" viewBox="0 0 32 32">
<path fill="#f472b7" style="fill: var(--color4, #f472b7)" d="M7.493 23.763c4.158 4.559 11.331 4.787 16.022 0.51s5.123-11.441 0.965-16.001c-4.158-4.559-11.331-4.787-16.022-0.51s-5.123 11.442-0.965 16.001z"></path>
<path fill="#fff" style="fill: var(--color2, #fff)" d="M11.209 13.964c0.281 0.308 0.393-0.054 0.71-0.343s0.719-0.395 0.438-0.704-0.766-0.324-1.083-0.034c-0.318 0.289-0.347 0.773-0.065 1.082zM9.015 15.965c0.281 0.308 0.393-0.054 0.71-0.343s0.719-0.395 0.438-0.704-0.766-0.324-1.083-0.034c-0.318 0.289-0.347 0.773-0.065 1.082zM10.867 16.9c0.549 0.602 1.496 0.632 2.116 0.067s0.676-1.511 0.127-2.113c-0.549-0.602-0.464 0.5-1.084 1.065s-1.709 0.379-1.16 0.981z"></path>
</symbol>
<symbol id="icon-pinterest" viewBox="0 0 26 32">
<path d="M14.052 0c-7.065 0-14.046 4.386-14.046 11.483 0 4.516 2.725 7.080 4.379 7.080 0.681 0 1.075-1.769 1.075-2.271 0-0.595-1.633-1.864-1.633-4.347 0-5.156 4.213-8.81 9.667-8.81 4.689 0 8.16 2.483 8.16 7.042 0 3.404-1.466 9.792-6.218 9.792-1.715 0-3.181-1.155-3.181-2.811 0-2.422 1.817-4.769 1.817-7.271 0-4.245-6.466-3.475-6.466 1.654 0 1.077 0.147 2.271 0.664 3.253-0.952 3.808-2.894 9.483-2.894 13.408 0 1.211 0.186 2.405 0.311 3.616 0.234 0.244 0.117 0.218 0.476 0.097 3.469-4.425 3.346-5.292 4.913-11.081 0.848 1.501 3.038 2.308 4.773 2.308 7.31 0 10.597-6.637 10.597-12.619 0-6.371-5.908-10.523-12.394-10.523z"></path>
</symbol>
<symbol id="icon-twitter" viewBox="0 0 32 32">
<path d="M32 6.078c-1.1 0.493-2.376 0.857-3.713 1.028l-0.068 0.007c1.36-0.817 2.382-2.078 2.873-3.579l0.013-0.046c-1.197 0.722-2.591 1.273-4.076 1.573l-0.084 0.014c-1.2-1.279-2.9-2.076-4.787-2.076-3.622 0-6.558 2.936-6.558 6.558 0 0.001 0 0.003 0 0.004v-0c0 0.52 0.043 1.021 0.152 1.496-5.454-0.266-10.28-2.88-13.522-6.861-0.564 0.949-0.899 2.092-0.902 3.313v0.001c0 2.272 1.171 4.286 2.914 5.451-1.091-0.030-2.107-0.325-2.994-0.823l0.033 0.017v0.072c0.003 3.165 2.236 5.807 5.213 6.44l0.043 0.008c-0.499 0.136-1.071 0.215-1.662 0.215-0.020 0-0.041-0-0.061-0l0.003 0c-0.419 0-0.843-0.024-1.242-0.112 0.85 2.598 3.261 4.509 6.13 4.57-2.215 1.746-5.045 2.8-8.122 2.8-0.004 0-0.008 0-0.013 0h0.001c-0.018 0-0.040 0-0.062 0-0.531 0-1.055-0.034-1.569-0.099l0.061 0.006c2.826 1.846 6.287 2.944 10.004 2.944 0.021 0 0.042-0 0.063-0h-0.003c12.072 0 18.672-10 18.672-18.669 0-0.288-0.010-0.57-0.024-0.848 1.299-0.936 2.39-2.064 3.258-3.355l0.030-0.047z"></path>
</symbol>
<symbol id="icon-linkedin" viewBox="0 0 32 32">
<path d="M31.992 32h0.008v-11.738c0-5.741-1.235-10.163-7.947-10.163-3.227 0-5.392 1.77-6.277 3.45h-0.093v-2.914h-6.365v21.363h6.627v-10.578c0-2.786 0.528-5.48 3.978-5.48 3.398 0 3.45 3.179 3.45 5.658v10.402h6.619zM0.528 10.635h6.635v21.365h-6.635v-21.365zM3.843 0c-2.123 0-3.843 1.721-3.843 3.843v0c0 2.12 1.722 3.878 3.843 3.878 2.12 0 3.842-1.757 3.842-3.878s-1.72-3.841-3.841-3.843h-0z"></path>
</symbol>
<symbol id="icon-facebook" viewBox="0 0 32 32">
<path d="M21.328 5.312h2.923v-5.088c-1.232-0.143-2.66-0.224-4.107-0.224-0.052 0-0.104 0-0.157 0l0.008-0c-4.213 0-7.099 2.65-7.099 7.52v4.48h-4.646v5.688h4.646v14.312h5.699v-14.31h4.459l0.709-5.688h-5.17v-3.922c0-1.643 0.443-2.768 2.734-2.768z"></path>
</symbol>
</defs>
</svg>
